<svg width="713" height="722" viewBox="0 0 713 722" fill="none" xmlns="http://www.w3.org/2000/svg">
<g clip-path="url(#clip0_2154_65)">
<path d="M287.406 268.528H313.747V343.762H399.922V268.528H426.396V441.712H399.922V366.278H313.747V441.712H287.406V268.528Z" fill="#FDDB3A"/>
<path d="M351.787 0C192.34 0 53.5502 102.427 6.48486 254.831L0 275.945H112.248L116.393 265.789C155.57 169.442 247.962 107.171 351.787 107.171C491.846 107.171 605.766 221.023 605.766 361C605.766 500.977 491.846 614.829 351.787 614.829C247.962 614.829 155.637 552.558 116.393 456.211L112.248 446.055H0L6.48486 467.169C53.5502 619.573 192.273 722 351.787 722C550.945 722 713 560.041 713 361C713 161.959 550.945 0 351.787 0Z" fill="#FDDB3A"/>
<path d="M352.589 557.97C461.294 557.97 549.675 469.574 549.675 361C549.675 252.426 461.227 164.03 352.589 164.03C278.514 164.03 213.866 205.121 180.172 265.722H231.182C259.461 229.776 303.384 206.658 352.589 206.658C437.761 206.658 507.089 275.945 507.089 361.067C507.089 446.189 437.761 515.409 352.589 515.409C303.384 515.409 259.528 492.291 231.182 456.345H180.172C213.8 516.879 278.448 557.97 352.589 557.97Z" fill="#FDDB3A"/>
</g>
<defs>
<clipPath id="clip0_2154_65">
<rect width="713" height="722" fill="white"/>
</clipPath>
</defs>
</svg>
